<svg width="13.000000" height="13.000000" viewBox="0 0 15 15" fill="none" xmlns="http://www.w3.org/2000/svg" xmlns:xlink="http://www.w3.org/1999/xlink">
	<desc>
			Created with Pixso.
	</desc>
	<defs/>
	<path id="Vector" d="M11.83 10.79L15 13.95L13.95 15L10.79 11.83C9.61 12.78 8.15 13.29 6.64 13.29C2.97 13.29 0 10.31 0 6.64C0 2.97 2.97 0 6.64 0C10.31 0 13.29 2.97 13.29 6.64C13.29 8.15 12.78 9.61 11.83 10.79ZM10.35 10.24C11.29 9.28 11.81 7.98 11.81 6.64C11.81 3.78 9.5 1.47 6.64 1.47C3.78 1.47 1.47 3.78 1.47 6.64C1.47 9.5 3.78 11.81 6.64 11.81C7.98 11.81 9.28 11.29 10.24 10.35L10.35 10.24Z" fill="#DFBD43" fill-opacity="1.000000" fill-rule="nonzero"/>
</svg>
